<?xml version="1.0" standalone="no"?>
<!DOCTYPE svg PUBLIC "-//W3C//DTD SVG 20010904//EN"
 "http://www.w3.org/TR/2001/REC-SVG-20010904/DTD/svg10.dtd">
<svg version="1.0" xmlns="http://www.w3.org/2000/svg"
 width="512.000000pt" height="512.000000pt" viewBox="0 0 512.000000 512.000000"
 preserveAspectRatio="xMidYMid meet">
<metadata>
Created by potrace 1.11, written by Peter Selinger 2001-2013
</metadata>
<g transform="translate(0.000000,512.000000) scale(0.100000,-0.100000)"
fill="#000000" stroke="none">
<path d="M0 2560 l0 -2560 268 0 268 0 -1 248 c0 219 3 260 23 361 61 303 185
560 357 739 41 44 75 84 75 89 0 6 -21 28 -47 49 -106 86 -173 176 -193 256
-21 84 14 186 103 302 58 73 96 101 158 116 59 14 103 9 259 -32 192 -50 222
-41 455 125 162 117 308 198 467 263 262 105 339 109 598 25 l94 -30 221 74
c121 41 316 100 434 131 293 77 335 73 418 -35 128 -166 116 -620 -22 -836
-28 -44 -46 -58 -160 -120 -584 -319 -924 -722 -1001 -1190 -23 -140 -15 -330
19 -442 l24 -83 -206 -3 c-145 -2 -107 -3 132 -5 185 -1 337 -1 337 1 0 1 -9
29 -20 60 -43 122 -54 195 -54 372 1 144 4 182 22 250 25 89 68 187 100 225
l20 25 79 -38 c401 -198 734 -410 1278 -815 l110 -82 253 0 252 0 0 2560 0
2560 -2560 0 -2560 0 0 -2560z m2606 2056 c19 -78 49 -186 66 -241 16 -55 32
-108 35 -117 9 -29 126 -68 463 -151 l95 -23 -125 -33 c-210 -55 -391 -110
-416 -126 -27 -18 -52 -92 -120 -356 -25 -101 -48 -185 -49 -187 -1 -2 -13 39
-25 90 -37 149 -108 396 -125 432 -14 30 -26 37 -98 61 -72 24 -437 115 -461
115 -25 0 13 12 174 55 232 62 366 103 378 118 14 17 72 212 117 396 44 176
38 178 91 -33z"/>
<path d="M2458 2370 c-111 -38 -268 -111 -289 -136 -34 -40 -33 -60 9 -102 67
-67 169 -78 259 -26 107 62 197 226 153 279 -17 21 -32 19 -132 -15z"/>
</g>
</svg>
