<svg xmlns="http://www.w3.org/2000/svg" width="62" height="58.938" viewBox="0 0 62 58.938"><defs><style>.cls-1 { fill: #fff; fill-rule: evenodd; }</style></defs><path d="M61.92 47.945C58.9 30.25 49.53 14.155 34.84 1.397a5.872 5.872 0 0 0-7.68 0C12.49 14.134 3.12 30.28.08 48.09a5.708 5.708 0 0 0 3.52 6.243c7.68 3.126 16.37 4.6 27.35 4.6h.19c11.73 0 21.03-1.655 27.65-4.927a5.71 5.71 0 0 0 3.13-6.06zM44.22 30.89a84.9 84.9 0 0 0-9.41 2.79c-.47.094-3.38-1.53-5.78-.773-6.46 2.032-8.12 4.914-10.13 5.3s-4.75-2.042-6.66.388c-1.55 1.97-2.66 3.88 1.08 6.68 1.13.643-1.62.805-3.82 6.68-1.6 4.268-.59 6.2-.59 6.2l25.72 1.814s-6.78-9.19 11.04-18.05c2.7-1.27 3.32-12.275-1.45-11.03zm-12.76 5.25a4.036 4.036 0 0 1-2.1 2.225 2.33 2.33 0 0 1-2.79-.795c-.28-.46.29-.96.78-1.19 3.71-1.756 4.05-1.336 3.92-1.38a.816.816 0 0 1 .19 1.14zm6.15 23.5l11.46-1.678a27.88 27.88 0 0 0-5.88-3.97c-3.47-1.844-5.28-2.865-5.58-2.806-3.71 5.03-.24 8.035 0 8.45zM32.56 12.52l-1.48-5-1.39 4.91-.05.173-.18.05-5.06 1.456 4.98 1.38.17.048.05.173 1.47 5 1.4-4.912.05-.172.17-.05 5.06-1.454-4.97-1.382-.17-.048z" class="cls-1"/></svg>
