<svg xmlns="http://www.w3.org/2000/svg" width="171" height="24" viewBox="0 0 171 24"><defs><style>.cls-1 { fill: #fff; fill-rule: evenodd; }</style></defs><path id="northplay_copy" d="M17.57 23.6L4.61 10.08V23.6H0V.428h1.45l12.74 12.958V.428h4.6V23.6h-1.22zM32.68 0a12 12 0 1 0 11.94 12A12 12 0 0 0 32.68 0zm0 4.76A7.24 7.24 0 1 1 25.47 12a7.217 7.217 0 0 1 7.21-7.242zm29.76 18.844l-4.58-9.918A6.964 6.964 0 0 0 55 .4h-8.68v23.174h4.6v-9.257h2.31l4.31 9.29h4.9zM55 5.024a2.324 2.324 0 0 1 2.31 2.346A2.3 2.3 0 0 1 55 9.684h-4.08v-4.66H55zM63.51.427v4.628h6.41V23.6h4.61V5.056h6.38V.428h-17.4zM95.72 9.32H87.2V.46h-4.61V23.6h4.61v-9.653h8.52V23.6h4.61V.46h-4.61v8.86zm7.04-8.892V23.6h4.61v-9.257h2.86a6.96 6.96 0 0 0 0-13.917h-7.47zm4.61 9.29V5.055h2.86a2.342 2.342 0 0 1 2.3 2.347 2.312 2.312 0 0 1-2.3 2.314h-2.86zm16.19-9.29h-4.61v23.14h13.19v-4.594h-8.58V.428zm22.47 0h-1.35l-11.12 21.95V23.6h22.8v-1.224zm-5.59 18.546l4.8-9.455 4.41 9.454h-9.21zM165.9.428l-4.7 8.727-4.74-8.727h-5.1l7.53 14.678v8.5h4.61v-8.5L171 .428h-5.1z" data-name="northplay copy" class="cls-1"/></svg>
